<?xml version="1.0" encoding="utf-8"?>
<!-- Generator: Adobe Illustrator 21.1.0, SVG Export Plug-In . SVG Version: 6.00 Build 0)  -->
<svg version="1.1" id="Layer_1" xmlns="http://www.w3.org/2000/svg" xmlns:xlink="http://www.w3.org/1999/xlink" x="0px" y="0px"
	 width="38px" height="33.1px" viewBox="0 0 38 33.1" style="enable-background:new 0 0 38 33.1;" xml:space="preserve">
<g id="XMLID_496_">
	<path id="XMLID_497_" d="M0.7,15.9l8.8,3.3L12.8,30c0.2,0.7,1.1,1,1.6,0.5l4.9-4c0.5-0.4,1.2-0.4,1.8,0l8.8,6.4
		c0.6,0.4,1.5,0.1,1.6-0.6l6.4-31c0.2-0.8-0.6-1.5-1.4-1.2L0.7,13.9C-0.2,14.3-0.2,15.5,0.7,15.9z M12.3,17.4L29.4,6.9
		c0.3-0.2,0.6,0.2,0.4,0.5L15.6,20.5c-0.5,0.5-0.8,1.1-0.9,1.8l-0.5,3.6c-0.1,0.5-0.7,0.5-0.9,0.1l-1.9-6.5
		C11.3,18.6,11.6,17.8,12.3,17.4z"/>
</g>
</svg>
