<?xml version="1.0" encoding="utf-8"?><svg xmlns="http://www.w3.org/2000/svg" xmlns:xlink="http://www.w3.org/1999/xlink"><symbol viewBox="0 0 22.2 10.1" id="fbm" xmlns="http://www.w3.org/2000/svg"><path d="M0 10L9.4 0 14 4.6 22.2 0 13 10.1 8.5 5.2z"/></symbol><symbol viewBox="0 0 38 33.1" id="telega" xmlns="http://www.w3.org/2000/svg"><path d="M.7 15.9l8.8 3.3L12.8 30c.2.7 1.1 1 1.6.5l4.9-4c.5-.4 1.2-.4 1.8 0l8.8 6.4c.6.4 1.5.1 1.6-.6l6.4-31c.2-.8-.6-1.5-1.4-1.2L.7 13.9c-.9.4-.9 1.6 0 2zm11.6 1.5L29.4 6.9c.3-.2.6.2.4.5L15.6 20.5c-.5.5-.8 1.1-.9 1.8l-.5 3.6c-.1.5-.7.5-.9.1l-1.9-6.5c-.1-.9.2-1.7.9-2.1z"/></symbol></svg>